<svg id="App_Icon_Kit_B" data-name="App Icon Kit B" xmlns="http://www.w3.org/2000/svg" xmlns:xlink="http://www.w3.org/1999/xlink" viewBox="0 0 1024 1024"><defs><style>.cls-1{fill:#8a798e;}.cls-2{fill:#f95e4e;}.cls-3{fill:#fff;}.cls-4{fill:#e0372f;}.cls-5{fill:#a1e8d9;}</style><symbol id="Background" data-name="Background" viewBox="0 0 1024 1024"><rect class="cls-1" width="1024" height="1024"/></symbol><symbol id="Icon" data-name="Icon" viewBox="0 0 1024 1024"><path class="cls-2" d="M410.6,291.1C375,288,347.19,300,347.19,300V515s10.77,1.82,53.24,9.59C437.3,452.26,445.48,364.45,410.6,291.1Z"/><path class="cls-2" d="M579.53,370.19c-26.52-7.95-53.57-24.7-79.12-40.54,15.67,69.39,12.1,149.56-28.31,207.94a314.89,314.89,0,0,0,98.21-.72C589.34,484.25,588.78,426.05,579.53,370.19Z"/><path class="cls-3" d="M641.77,368.38a139.44,139.44,0,0,1-18.21,5.13c-14.26,2.87-29.06,1.18-44-3.32,9.25,55.86,9.81,114.06-9.22,166.68a294.13,294.13,0,0,0,92.38-31.28C669.87,458.65,664,408.42,641.77,368.38Z"/><path class="cls-2" d="M641.77,368.38c22.25,40,28.1,90.27,20.92,137.21a245.64,245.64,0,0,0,59.42-44.74A160.07,160.07,0,0,1,739.83,445c-4.15-37.32-15.91-74.83-36.9-105.6C681.92,350.61,661.27,361.57,641.77,368.38Z"/><path class="cls-3" d="M702.93,339.43c21,30.77,32.75,68.28,36.9,105.6,29.75-22.87,62.24-30.95,88.64-33.3-7.63-38.34-22.45-75.14-44.93-107.85C757.12,310.63,729.73,325.18,702.93,339.43Z"/><path class="cls-2" d="M870.81,324.8c-1.93-.63-25.56-17.64-52.57-20.92-10.11-1.23-24.1-2.71-34.7,0,22.48,32.71,37.3,69.51,44.93,107.85,26.9-2.38,52.94-8.12,55.23-7.91C903.19,371.48,896.68,339.64,870.81,324.8Z"/><path class="cls-3" d="M500.41,329.65C481.63,318,463.66,306.84,447.32,300a123.51,123.51,0,0,0-36.72-8.93c34.88,73.35,26.7,161.16-10.17,233.44,15.84,2.9,36.05,6.63,61.8,11.4,3.28.61,6.57,1.15,9.87,1.65C512.51,479.21,516.08,399,500.41,329.65Z"/><path class="cls-4" d="M895,367.09c0,20.65-6.92,37.39-15.46,37.39s-15.45-16.74-15.45-37.39S871,329.7,879.58,329.7,895,346.44,895,367.09Z"/><path class="cls-4" d="M371.24,407.49c0,59.35-13.67,107.46-30.53,107.46s-30.52-48.11-30.52-107.46S323.86,300,340.71,300,371.24,348.14,371.24,407.49Z"/><path class="cls-3" d="M340.71,517.54c-21.5,0-33.1-56.7-33.1-110s11.6-110,33.1-110,33.11,56.69,33.11,110S362.22,517.54,340.71,517.54Zm0-214.92c-13.21,0-27.94,43.07-27.94,104.87s14.73,104.88,27.94,104.88,27.94-43.07,27.94-104.88S353.93,302.62,340.71,302.62Z"/><path class="cls-3" d="M198.38,819.36V248.73c0-5.93-4.48-10.73-10-10.73s-10,4.8-10,10.73V819.79Z"/><path class="cls-3" d="M310.91,432.35a1.88,1.88,0,0,1-.52-.08L184.54,388.79l155.37-90.14a1.6,1.6,0,1,1,1.61,2.76L192.19,388.05l119.24,41.2a1.59,1.59,0,0,1-.52,3.1Z"/><path class="cls-3" d="M336.27,515.4a1.6,1.6,0,0,1-1-.37L187.33,389.64a1.6,1.6,0,0,1,1-2.82h0L370.82,388a1.6,1.6,0,0,1,0,3.2h0l-178-1.11L337.29,512.59a1.59,1.59,0,0,1,.19,2.25A1.54,1.54,0,0,1,336.27,515.4Z"/><path class="cls-5" d="M811.93,634.83a10.63,10.63,0,0,1-10.63,10.63H403.79a10.63,10.63,0,0,1-10.63-10.63h0a10.64,10.64,0,0,1,10.63-10.64H801.3a10.64,10.64,0,0,1,10.63,10.64Z"/><path class="cls-5" d="M555.42,730a8.37,8.37,0,0,1-8.37,8.37H335.29a8.36,8.36,0,0,1-8.36-8.37h0a8.36,8.36,0,0,1,8.36-8.36H547.05a8.36,8.36,0,0,1,8.37,8.36Z"/></symbol></defs><g id="App_Icon_and_Badge" data-name="App Icon and Badge"><g id="Main-2" data-name="Main"><use width="1024" height="1024" transform="translate(-0.75 0.25)" xlink:href="#Background"/><use width="1024" height="1024" transform="translate(-1.02 -2.01)" xlink:href="#Icon"/></g></g></svg>